<?xml version="1.0" encoding="utf-8"?>
<!-- Generator: Adobe Illustrator 23.0.5, SVG Export Plug-In . SVG Version: 6.00 Build 0)  -->
<svg version="1.1"
	 id="svg4375" xmlns:cc="http://creativecommons.org/ns#" xmlns:dc="http://purl.org/dc/elements/1.1/" xmlns:inkscape="http://www.inkscape.org/namespaces/inkscape" xmlns:rdf="http://www.w3.org/1999/02/22-rdf-syntax-ns#" xmlns:sodipodi="http://sodipodi.sourceforge.net/DTD/sodipodi-0.dtd" xmlns:svg="http://www.w3.org/2000/svg"
	 xmlns="http://www.w3.org/2000/svg" xmlns:xlink="http://www.w3.org/1999/xlink" x="0px" y="0px" viewBox="0 0 1069.3 510"
	 style="enable-background:new 0 0 1069.3 510;" xml:space="preserve">
<style type="text/css">
	.st0{fill:#FFFFFF;}
	.st1{clip-path:url(#SVGID_2_);}
</style>
<sodipodi:namedview  bordercolor="#666666" borderopacity="1.0" fit-margin-bottom="0" fit-margin-left="0" fit-margin-right="0" fit-margin-top="0" id="base" inkscape:current-layer="layer1" inkscape:cx="534.63499" inkscape:cy="255" inkscape:document-units="px" inkscape:pageopacity="0.0" inkscape:pageshadow="2" inkscape:window-height="990" inkscape:window-maximized="1" inkscape:window-width="1680" inkscape:window-x="-4" inkscape:window-y="-4" inkscape:zoom="1.4632711" pagecolor="#ffffff" showgrid="false">
	</sodipodi:namedview>
<g id="layer1" transform="translate(-247.66352,133.35282)" inkscape:groupmode="layer" inkscape:label="Ebene 1">
	<g id="g116" transform="matrix(24.306905,0,0,-24.306905,780.60914,-71.249908)">
		<path id="path118" inkscape:connector-curvature="0" class="st0" d="M0,0c0,0,5.4,0.1,10.3-1.5s8.1-4.4,8.1-4.4h3.3
			c0,0-3.5,3.8-10.2,6.2C4.8,2.6,0,2.3,0,2.3V0"/>
	</g>
	<g id="g120" transform="matrix(24.306905,0,0,-24.306905,507.61829,-80.632373)">
		<path id="path122" inkscape:connector-curvature="0" class="st0" d="M0,0c-6.3-2-10.5-6.3-10.5-6.3h3.3c0,0,2.7,2.7,8,4.4
			s10.3,1.6,10.3,1.6V2C11.2,2,6.3,2.2,0,0"/>
	</g>
	<g id="g128" transform="matrix(24.306905,0,0,-24.306905,714.61589,88.374509)">
		<path id="path130" inkscape:connector-curvature="0" class="st0" d="M0,0l5.1-7.2V0h3.3v-11.5H4.6l-5.3,7.2l-0.1-7.2H-4V0"/>
	</g>
	<g id="g132" transform="matrix(24.306905,0,0,-24.306905,1311.9338,371.64718)">
		<path id="path134" inkscape:connector-curvature="0" class="st0" d="M0,0h-4l-3.5,4.2l-4-4.2h-3.3L-9,6l-4.7,5.6h3.9l2.9-3.4
			l3.4,3.4h3.3l-5.2-5.2"/>
	</g>
	<g id="g136" transform="matrix(24.306905,0,0,-24.306905,-5348.3769,1062.8617)">
		<g>
			<g>
				<defs>
					<rect id="SVGID_1_" x="-319.6" y="-211.7" width="1147.3" height="500.7"/>
				</defs>
				<clipPath id="SVGID_2_">
					<use xlink:href="#SVGID_1_"  style="overflow:visible;"/>
				</clipPath>
				<g id="g138" class="st1">
					<g id="g144" transform="translate(237.668,34.645)">
						<path id="path146" inkscape:connector-curvature="0" class="st0" d="M0,0l-0.5,0.6l4.7,4.8H0.9l-4.8-4.9v4.9h-3.3V-6.2h3.3
							v3.3l1.3,1.3l3.9-4.6h4"/>
					</g>
				</g>
			</g>
		</g>
	</g>
</g>
</svg>
