<?xml version="1.0"?>
<svg xmlns="http://www.w3.org/2000/svg" height="512px" viewBox="0 0 54 56" width="512px"><g><g id="001---Power-Home"><path id="Shape" d="m26.29 9.19-20 20c-.18474416.1862606-.28889538.4376601-.29.7v25.11c0 .5522847.44771525 1 1 1h40c.5522847 0 1-.4477153 1-1v-25.1c-.0011046-.2623399-.1052558-.5137394-.29-.7l-20-20c-.1864301-.19064108-.4412772-.298931-.7079168-.30080874s-.5229867.10281221-.7120832.29080874zm6.32 19c.3199281-.425705.7964189-.7062441 1.323884-.779451.5274652-.0732069 1.0623463.0669638 1.486116.389451 4.8106741 3.6214553 6.7668493 9.9133065 4.8576054 15.6240255s-7.2561833 9.5609466-13.2776054 9.5609466-11.3683615-3.8502276-13.2776054-9.5609466.0469313-12.0025702 4.8576054-15.6240255c.5716249-.4322914 1.3304529-.5267868 1.9906406-.2478907.6601878.278896 1.1214372.8888126 1.21 1.6.0885629.7111874-.2090157 1.4155993-.7806406 1.8478907-3.4434433 2.5825824-4.8479734 7.0788563-3.486833 11.1622777 1.3611405 4.0834214 5.1825289 6.8377223 9.486833 6.8377223s8.1256925-2.7543009 9.486833-6.8377223c1.3611404-4.0834214-.0433897-8.5796953-3.486833-11.1622777-.4286293-.3200941-.7111567-.7985639-.7844431-1.3284813-.0732865-.5299173.0687773-1.0671072.3944431-1.4915187zm-3.61-4.19v15c0 1.1045695-.8954305 2-2 2s-2-.8954305-2-2v-15c0-1.1045695.8954305-2 2-2s2 .8954305 2 2z" data-original="#000000" class="active-path" data-old_color="#000000" fill="#FFFFFF"/><path id="Shape" d="m8.71 15.46 4-4c.36-.35.29-.49.29-2.46 0-.55228475-.4477153-1-1-1h-4c-.55228475 0-1 .44771525-1 1v5.76c.00169577.4044441.24684724.7680455.62114764.9212679s.80404325.0658935 1.08885236-.2212679z" data-original="#000000" class="active-path" data-old_color="#000000" fill="#FFFFFF"/><path id="Shape" d="m3.67 29 22.45-22.46c.2327994-.23450132.5495663-.36638681.88-.36638681s.6472006.13188549.88.36638681l22.45 22.46c.1877666.1893127.4433625.2957983.71.2957983s.5222334-.1064856.71-.2957983l1.41-1.42c.3877236-.3900375.3877236-1.0199625 0-1.41l-25.45-25.46c-.1877666-.18931265-.4433625-.29579832-.71-.29579832s-.5222334.10648567-.71.29579832c-31.29 31.29 19.76-19.77-25.45 25.45-.38772359.3900375-.38772359 1.0199625 0 1.41l1.41 1.43c.1877666.1893127.44336246.2957983.71.2957983s.5222334-.1064856.71-.2957983z" data-original="#000000" class="active-path" data-old_color="#000000" fill="#FFFFFF"/></g></g> </svg>
